<mxfile host="app.diagrams.net" agent="Mozilla/5.0 (X11; Linux x86_64) AppleWebKit/537.36 (KHTML, like Gecko) Chrome/128.0.0.0 Safari/537.36" version="24.7.16">
  <diagram id="C5RBs43oDa-KdzZeNtuy" name="Page-1">
    <mxGraphModel dx="1434" dy="759" grid="1" gridSize="10" guides="1" tooltips="1" connect="1" arrows="1" fold="1" page="1" pageScale="1" pageWidth="827" pageHeight="1169" math="0" shadow="0">
      <root>
        <mxCell id="WIyWlLk6GJQsqaUBKTNV-0" />
        <mxCell id="WIyWlLk6GJQsqaUBKTNV-1" parent="WIyWlLk6GJQsqaUBKTNV-0" />
        <mxCell id="KiCUAQ3bvHqfSKbmyW2W-3" style="edgeStyle=orthogonalEdgeStyle;rounded=0;orthogonalLoop=1;jettySize=auto;html=1;entryX=0.5;entryY=0;entryDx=0;entryDy=0;" edge="1" parent="WIyWlLk6GJQsqaUBKTNV-1" source="KiCUAQ3bvHqfSKbmyW2W-0" target="KiCUAQ3bvHqfSKbmyW2W-1">
          <mxGeometry relative="1" as="geometry" />
        </mxCell>
        <mxCell id="KiCUAQ3bvHqfSKbmyW2W-0" value="Mulai" style="strokeWidth=2;html=1;shape=mxgraph.flowchart.terminator;whiteSpace=wrap;" vertex="1" parent="WIyWlLk6GJQsqaUBKTNV-1">
          <mxGeometry x="50" y="130" width="100" height="60" as="geometry" />
        </mxCell>
        <mxCell id="KiCUAQ3bvHqfSKbmyW2W-5" style="edgeStyle=orthogonalEdgeStyle;rounded=0;orthogonalLoop=1;jettySize=auto;html=1;entryX=0.5;entryY=0;entryDx=0;entryDy=0;" edge="1" parent="WIyWlLk6GJQsqaUBKTNV-1" source="KiCUAQ3bvHqfSKbmyW2W-1" target="KiCUAQ3bvHqfSKbmyW2W-4">
          <mxGeometry relative="1" as="geometry" />
        </mxCell>
        <mxCell id="KiCUAQ3bvHqfSKbmyW2W-1" value="Persiapan &lt;br&gt;Alat dan Bahan" style="rounded=0;whiteSpace=wrap;html=1;" vertex="1" parent="WIyWlLk6GJQsqaUBKTNV-1">
          <mxGeometry x="40" y="220" width="120" height="60" as="geometry" />
        </mxCell>
        <mxCell id="KiCUAQ3bvHqfSKbmyW2W-7" style="edgeStyle=orthogonalEdgeStyle;rounded=0;orthogonalLoop=1;jettySize=auto;html=1;entryX=0.5;entryY=0;entryDx=0;entryDy=0;" edge="1" parent="WIyWlLk6GJQsqaUBKTNV-1" source="KiCUAQ3bvHqfSKbmyW2W-4" target="KiCUAQ3bvHqfSKbmyW2W-6">
          <mxGeometry relative="1" as="geometry" />
        </mxCell>
        <mxCell id="KiCUAQ3bvHqfSKbmyW2W-4" value="Hubungkan &lt;br&gt;Arduino ke PC" style="rounded=0;whiteSpace=wrap;html=1;" vertex="1" parent="WIyWlLk6GJQsqaUBKTNV-1">
          <mxGeometry x="40" y="310" width="120" height="60" as="geometry" />
        </mxCell>
        <mxCell id="KiCUAQ3bvHqfSKbmyW2W-9" style="edgeStyle=orthogonalEdgeStyle;rounded=0;orthogonalLoop=1;jettySize=auto;html=1;entryX=0.5;entryY=0;entryDx=0;entryDy=0;" edge="1" parent="WIyWlLk6GJQsqaUBKTNV-1" source="KiCUAQ3bvHqfSKbmyW2W-6">
          <mxGeometry relative="1" as="geometry">
            <mxPoint x="100" y="490" as="targetPoint" />
          </mxGeometry>
        </mxCell>
        <mxCell id="KiCUAQ3bvHqfSKbmyW2W-6" value="Buka IDE Arduino" style="rounded=0;whiteSpace=wrap;html=1;" vertex="1" parent="WIyWlLk6GJQsqaUBKTNV-1">
          <mxGeometry x="40" y="400" width="120" height="60" as="geometry" />
        </mxCell>
        <mxCell id="KiCUAQ3bvHqfSKbmyW2W-55" style="edgeStyle=orthogonalEdgeStyle;rounded=0;orthogonalLoop=1;jettySize=auto;html=1;entryX=0.5;entryY=0;entryDx=0;entryDy=0;" edge="1" parent="WIyWlLk6GJQsqaUBKTNV-1" source="KiCUAQ3bvHqfSKbmyW2W-10" target="KiCUAQ3bvHqfSKbmyW2W-54">
          <mxGeometry relative="1" as="geometry" />
        </mxCell>
        <mxCell id="KiCUAQ3bvHqfSKbmyW2W-10" value="&lt;font style=&quot;font-size: 11px;&quot;&gt;Inisialisasi&lt;span style=&quot;background-color: initial;&quot;&gt;:&lt;/span&gt;&lt;/font&gt;&lt;div style=&quot;font-size: 11px;&quot;&gt;&lt;font style=&quot;font-size: 11px;&quot;&gt;- Port USB &amp;amp; Board&lt;br&gt;&lt;/font&gt;&lt;div style=&quot;&quot;&gt;&lt;div style=&quot;&quot;&gt;&lt;font style=&quot;font-size: 11px;&quot;&gt;- Library Servo&lt;/font&gt;&lt;/div&gt;&lt;/div&gt;&lt;/div&gt;" style="shape=hexagon;perimeter=hexagonPerimeter2;whiteSpace=wrap;html=1;fixedSize=1;" vertex="1" parent="WIyWlLk6GJQsqaUBKTNV-1">
          <mxGeometry x="40" y="490" width="120" height="80" as="geometry" />
        </mxCell>
        <mxCell id="KiCUAQ3bvHqfSKbmyW2W-11" value="loop()" style="ellipse;whiteSpace=wrap;html=1;aspect=fixed;" vertex="1" parent="WIyWlLk6GJQsqaUBKTNV-1">
          <mxGeometry x="210" y="401.21999999999997" width="80" height="80" as="geometry" />
        </mxCell>
        <mxCell id="KiCUAQ3bvHqfSKbmyW2W-15" style="edgeStyle=orthogonalEdgeStyle;rounded=0;orthogonalLoop=1;jettySize=auto;html=1;entryX=0.5;entryY=0;entryDx=0;entryDy=0;" edge="1" parent="WIyWlLk6GJQsqaUBKTNV-1" source="KiCUAQ3bvHqfSKbmyW2W-13" target="KiCUAQ3bvHqfSKbmyW2W-14">
          <mxGeometry relative="1" as="geometry" />
        </mxCell>
        <mxCell id="KiCUAQ3bvHqfSKbmyW2W-13" value="loop()" style="ellipse;whiteSpace=wrap;html=1;aspect=fixed;direction=west;" vertex="1" parent="WIyWlLk6GJQsqaUBKTNV-1">
          <mxGeometry x="381.28" y="120.58" width="77.44" height="77.44" as="geometry" />
        </mxCell>
        <mxCell id="KiCUAQ3bvHqfSKbmyW2W-21" style="edgeStyle=orthogonalEdgeStyle;rounded=0;orthogonalLoop=1;jettySize=auto;html=1;entryX=0.5;entryY=0;entryDx=0;entryDy=0;" edge="1" parent="WIyWlLk6GJQsqaUBKTNV-1" source="KiCUAQ3bvHqfSKbmyW2W-14" target="KiCUAQ3bvHqfSKbmyW2W-20">
          <mxGeometry relative="1" as="geometry" />
        </mxCell>
        <mxCell id="KiCUAQ3bvHqfSKbmyW2W-14" value="servo1()&lt;br&gt;// rotasi kekanan 180 derajat" style="rounded=0;whiteSpace=wrap;html=1;" vertex="1" parent="WIyWlLk6GJQsqaUBKTNV-1">
          <mxGeometry x="360" y="221.22" width="120" height="60" as="geometry" />
        </mxCell>
        <mxCell id="KiCUAQ3bvHqfSKbmyW2W-26" style="edgeStyle=orthogonalEdgeStyle;rounded=0;orthogonalLoop=1;jettySize=auto;html=1;entryX=0.5;entryY=0;entryDx=0;entryDy=0;" edge="1" parent="WIyWlLk6GJQsqaUBKTNV-1" source="KiCUAQ3bvHqfSKbmyW2W-17" target="KiCUAQ3bvHqfSKbmyW2W-25">
          <mxGeometry relative="1" as="geometry" />
        </mxCell>
        <mxCell id="KiCUAQ3bvHqfSKbmyW2W-17" value="servo2()&lt;div&gt;// turunkan kebawah (ke objek)&amp;nbsp;&lt;/div&gt;" style="rounded=0;whiteSpace=wrap;html=1;" vertex="1" parent="WIyWlLk6GJQsqaUBKTNV-1">
          <mxGeometry x="360" y="429.3" width="120" height="60" as="geometry" />
        </mxCell>
        <mxCell id="KiCUAQ3bvHqfSKbmyW2W-30" style="edgeStyle=orthogonalEdgeStyle;rounded=0;orthogonalLoop=1;jettySize=auto;html=1;entryX=0.5;entryY=0;entryDx=0;entryDy=0;" edge="1" parent="WIyWlLk6GJQsqaUBKTNV-1" source="KiCUAQ3bvHqfSKbmyW2W-19" target="KiCUAQ3bvHqfSKbmyW2W-29">
          <mxGeometry relative="1" as="geometry" />
        </mxCell>
        <mxCell id="KiCUAQ3bvHqfSKbmyW2W-19" value="servo3()&lt;div&gt;// capit objek&lt;/div&gt;" style="rounded=0;whiteSpace=wrap;html=1;" vertex="1" parent="WIyWlLk6GJQsqaUBKTNV-1">
          <mxGeometry x="360" y="629.3000000000001" width="120" height="60" as="geometry" />
        </mxCell>
        <mxCell id="KiCUAQ3bvHqfSKbmyW2W-24" style="edgeStyle=orthogonalEdgeStyle;rounded=0;orthogonalLoop=1;jettySize=auto;html=1;entryX=0.5;entryY=0;entryDx=0;entryDy=0;" edge="1" parent="WIyWlLk6GJQsqaUBKTNV-1" source="KiCUAQ3bvHqfSKbmyW2W-20" target="KiCUAQ3bvHqfSKbmyW2W-17">
          <mxGeometry relative="1" as="geometry" />
        </mxCell>
        <mxCell id="KiCUAQ3bvHqfSKbmyW2W-67" style="edgeStyle=orthogonalEdgeStyle;rounded=0;orthogonalLoop=1;jettySize=auto;html=1;entryX=1;entryY=0.5;entryDx=0;entryDy=0;" edge="1" parent="WIyWlLk6GJQsqaUBKTNV-1" source="KiCUAQ3bvHqfSKbmyW2W-20" target="KiCUAQ3bvHqfSKbmyW2W-14">
          <mxGeometry relative="1" as="geometry">
            <Array as="points">
              <mxPoint x="530" y="359" />
              <mxPoint x="530" y="251" />
            </Array>
          </mxGeometry>
        </mxCell>
        <mxCell id="KiCUAQ3bvHqfSKbmyW2W-20" value="Presisi?" style="rhombus;whiteSpace=wrap;html=1;" vertex="1" parent="WIyWlLk6GJQsqaUBKTNV-1">
          <mxGeometry x="380" y="319.3" width="80" height="80" as="geometry" />
        </mxCell>
        <mxCell id="KiCUAQ3bvHqfSKbmyW2W-27" style="edgeStyle=orthogonalEdgeStyle;rounded=0;orthogonalLoop=1;jettySize=auto;html=1;entryX=1;entryY=0.5;entryDx=0;entryDy=0;" edge="1" parent="WIyWlLk6GJQsqaUBKTNV-1" source="KiCUAQ3bvHqfSKbmyW2W-25" target="KiCUAQ3bvHqfSKbmyW2W-17">
          <mxGeometry relative="1" as="geometry">
            <Array as="points">
              <mxPoint x="530" y="559.3000000000001" />
              <mxPoint x="530" y="459.3" />
            </Array>
          </mxGeometry>
        </mxCell>
        <mxCell id="KiCUAQ3bvHqfSKbmyW2W-28" style="edgeStyle=orthogonalEdgeStyle;rounded=0;orthogonalLoop=1;jettySize=auto;html=1;entryX=0.5;entryY=0;entryDx=0;entryDy=0;" edge="1" parent="WIyWlLk6GJQsqaUBKTNV-1" source="KiCUAQ3bvHqfSKbmyW2W-25" target="KiCUAQ3bvHqfSKbmyW2W-19">
          <mxGeometry relative="1" as="geometry" />
        </mxCell>
        <mxCell id="KiCUAQ3bvHqfSKbmyW2W-25" value="Presisi?" style="rhombus;whiteSpace=wrap;html=1;" vertex="1" parent="WIyWlLk6GJQsqaUBKTNV-1">
          <mxGeometry x="380" y="519.3000000000001" width="80" height="80" as="geometry" />
        </mxCell>
        <mxCell id="KiCUAQ3bvHqfSKbmyW2W-31" style="edgeStyle=orthogonalEdgeStyle;rounded=0;orthogonalLoop=1;jettySize=auto;html=1;entryX=1;entryY=0.5;entryDx=0;entryDy=0;" edge="1" parent="WIyWlLk6GJQsqaUBKTNV-1" source="KiCUAQ3bvHqfSKbmyW2W-29" target="KiCUAQ3bvHqfSKbmyW2W-19">
          <mxGeometry relative="1" as="geometry">
            <Array as="points">
              <mxPoint x="530" y="759.3000000000001" />
              <mxPoint x="530" y="659.3000000000001" />
            </Array>
          </mxGeometry>
        </mxCell>
        <mxCell id="KiCUAQ3bvHqfSKbmyW2W-49" style="edgeStyle=orthogonalEdgeStyle;rounded=0;orthogonalLoop=1;jettySize=auto;html=1;entryX=0;entryY=0.5;entryDx=0;entryDy=0;" edge="1" parent="WIyWlLk6GJQsqaUBKTNV-1" source="KiCUAQ3bvHqfSKbmyW2W-29" target="KiCUAQ3bvHqfSKbmyW2W-32">
          <mxGeometry relative="1" as="geometry">
            <Array as="points">
              <mxPoint x="420" y="830" />
              <mxPoint x="560" y="830" />
              <mxPoint x="560" y="160" />
            </Array>
          </mxGeometry>
        </mxCell>
        <mxCell id="KiCUAQ3bvHqfSKbmyW2W-29" value="Berhasil?" style="rhombus;whiteSpace=wrap;html=1;" vertex="1" parent="WIyWlLk6GJQsqaUBKTNV-1">
          <mxGeometry x="380" y="719.3000000000001" width="80" height="80" as="geometry" />
        </mxCell>
        <mxCell id="KiCUAQ3bvHqfSKbmyW2W-34" style="edgeStyle=orthogonalEdgeStyle;rounded=0;orthogonalLoop=1;jettySize=auto;html=1;entryX=0.5;entryY=0;entryDx=0;entryDy=0;" edge="1" parent="WIyWlLk6GJQsqaUBKTNV-1" source="KiCUAQ3bvHqfSKbmyW2W-32" target="KiCUAQ3bvHqfSKbmyW2W-33">
          <mxGeometry relative="1" as="geometry" />
        </mxCell>
        <mxCell id="KiCUAQ3bvHqfSKbmyW2W-32" value="servo2()&lt;div&gt;// angkat objek&lt;/div&gt;" style="rounded=0;whiteSpace=wrap;html=1;" vertex="1" parent="WIyWlLk6GJQsqaUBKTNV-1">
          <mxGeometry x="600" y="129.94" width="120" height="60" as="geometry" />
        </mxCell>
        <mxCell id="KiCUAQ3bvHqfSKbmyW2W-35" style="edgeStyle=orthogonalEdgeStyle;rounded=0;orthogonalLoop=1;jettySize=auto;html=1;entryX=1;entryY=0.5;entryDx=0;entryDy=0;" edge="1" parent="WIyWlLk6GJQsqaUBKTNV-1" source="KiCUAQ3bvHqfSKbmyW2W-33" target="KiCUAQ3bvHqfSKbmyW2W-32">
          <mxGeometry relative="1" as="geometry">
            <Array as="points">
              <mxPoint x="770" y="259.94" />
              <mxPoint x="770" y="159.94" />
            </Array>
          </mxGeometry>
        </mxCell>
        <mxCell id="KiCUAQ3bvHqfSKbmyW2W-37" style="edgeStyle=orthogonalEdgeStyle;rounded=0;orthogonalLoop=1;jettySize=auto;html=1;entryX=0.5;entryY=0;entryDx=0;entryDy=0;" edge="1" parent="WIyWlLk6GJQsqaUBKTNV-1" source="KiCUAQ3bvHqfSKbmyW2W-33" target="KiCUAQ3bvHqfSKbmyW2W-36">
          <mxGeometry relative="1" as="geometry" />
        </mxCell>
        <mxCell id="KiCUAQ3bvHqfSKbmyW2W-33" value="Berhasil?" style="rhombus;whiteSpace=wrap;html=1;" vertex="1" parent="WIyWlLk6GJQsqaUBKTNV-1">
          <mxGeometry x="620" y="219.94" width="80" height="80" as="geometry" />
        </mxCell>
        <mxCell id="KiCUAQ3bvHqfSKbmyW2W-39" style="edgeStyle=orthogonalEdgeStyle;rounded=0;orthogonalLoop=1;jettySize=auto;html=1;entryX=0.5;entryY=0;entryDx=0;entryDy=0;" edge="1" parent="WIyWlLk6GJQsqaUBKTNV-1" source="KiCUAQ3bvHqfSKbmyW2W-36" target="KiCUAQ3bvHqfSKbmyW2W-38">
          <mxGeometry relative="1" as="geometry" />
        </mxCell>
        <mxCell id="KiCUAQ3bvHqfSKbmyW2W-36" value="servo1()&lt;div&gt;// rotasi kekiri 180 derajat&lt;/div&gt;" style="rounded=0;whiteSpace=wrap;html=1;" vertex="1" parent="WIyWlLk6GJQsqaUBKTNV-1">
          <mxGeometry x="600" y="329.94" width="120" height="60" as="geometry" />
        </mxCell>
        <mxCell id="KiCUAQ3bvHqfSKbmyW2W-40" style="edgeStyle=orthogonalEdgeStyle;rounded=0;orthogonalLoop=1;jettySize=auto;html=1;entryX=1;entryY=0.5;entryDx=0;entryDy=0;" edge="1" parent="WIyWlLk6GJQsqaUBKTNV-1" source="KiCUAQ3bvHqfSKbmyW2W-38" target="KiCUAQ3bvHqfSKbmyW2W-36">
          <mxGeometry relative="1" as="geometry">
            <Array as="points">
              <mxPoint x="770" y="459.94" />
              <mxPoint x="770" y="359.94" />
            </Array>
          </mxGeometry>
        </mxCell>
        <mxCell id="KiCUAQ3bvHqfSKbmyW2W-42" style="edgeStyle=orthogonalEdgeStyle;rounded=0;orthogonalLoop=1;jettySize=auto;html=1;entryX=0.5;entryY=0;entryDx=0;entryDy=0;" edge="1" parent="WIyWlLk6GJQsqaUBKTNV-1" source="KiCUAQ3bvHqfSKbmyW2W-38" target="KiCUAQ3bvHqfSKbmyW2W-41">
          <mxGeometry relative="1" as="geometry" />
        </mxCell>
        <mxCell id="KiCUAQ3bvHqfSKbmyW2W-38" value="Presisi?" style="rhombus;whiteSpace=wrap;html=1;" vertex="1" parent="WIyWlLk6GJQsqaUBKTNV-1">
          <mxGeometry x="620" y="419.94" width="80" height="80" as="geometry" />
        </mxCell>
        <mxCell id="KiCUAQ3bvHqfSKbmyW2W-45" style="edgeStyle=orthogonalEdgeStyle;rounded=0;orthogonalLoop=1;jettySize=auto;html=1;entryX=0.5;entryY=0;entryDx=0;entryDy=0;" edge="1" parent="WIyWlLk6GJQsqaUBKTNV-1" source="KiCUAQ3bvHqfSKbmyW2W-41" target="KiCUAQ3bvHqfSKbmyW2W-43">
          <mxGeometry relative="1" as="geometry" />
        </mxCell>
        <mxCell id="KiCUAQ3bvHqfSKbmyW2W-41" value="servo2()&lt;div&gt;// turunkan objek&lt;/div&gt;" style="rounded=0;whiteSpace=wrap;html=1;" vertex="1" parent="WIyWlLk6GJQsqaUBKTNV-1">
          <mxGeometry x="600" y="529.94" width="120" height="60" as="geometry" />
        </mxCell>
        <mxCell id="KiCUAQ3bvHqfSKbmyW2W-46" style="edgeStyle=orthogonalEdgeStyle;rounded=0;orthogonalLoop=1;jettySize=auto;html=1;entryX=1;entryY=0.5;entryDx=0;entryDy=0;" edge="1" parent="WIyWlLk6GJQsqaUBKTNV-1" source="KiCUAQ3bvHqfSKbmyW2W-43" target="KiCUAQ3bvHqfSKbmyW2W-41">
          <mxGeometry relative="1" as="geometry">
            <Array as="points">
              <mxPoint x="770" y="659.94" />
              <mxPoint x="770" y="559.94" />
            </Array>
          </mxGeometry>
        </mxCell>
        <mxCell id="KiCUAQ3bvHqfSKbmyW2W-48" style="edgeStyle=orthogonalEdgeStyle;rounded=0;orthogonalLoop=1;jettySize=auto;html=1;entryX=0.5;entryY=0;entryDx=0;entryDy=0;" edge="1" parent="WIyWlLk6GJQsqaUBKTNV-1" source="KiCUAQ3bvHqfSKbmyW2W-43" target="KiCUAQ3bvHqfSKbmyW2W-47">
          <mxGeometry relative="1" as="geometry" />
        </mxCell>
        <mxCell id="KiCUAQ3bvHqfSKbmyW2W-43" value="Berhasil?" style="rhombus;whiteSpace=wrap;html=1;" vertex="1" parent="WIyWlLk6GJQsqaUBKTNV-1">
          <mxGeometry x="620" y="619.94" width="80" height="80" as="geometry" />
        </mxCell>
        <mxCell id="KiCUAQ3bvHqfSKbmyW2W-62" style="edgeStyle=orthogonalEdgeStyle;rounded=0;orthogonalLoop=1;jettySize=auto;html=1;entryX=0.5;entryY=0;entryDx=0;entryDy=0;" edge="1" parent="WIyWlLk6GJQsqaUBKTNV-1" source="KiCUAQ3bvHqfSKbmyW2W-47" target="KiCUAQ3bvHqfSKbmyW2W-61">
          <mxGeometry relative="1" as="geometry" />
        </mxCell>
        <mxCell id="KiCUAQ3bvHqfSKbmyW2W-47" value="servo 3()&lt;div&gt;// lepaskan capitan dari objek&lt;/div&gt;" style="rounded=0;whiteSpace=wrap;html=1;" vertex="1" parent="WIyWlLk6GJQsqaUBKTNV-1">
          <mxGeometry x="600" y="729.94" width="120" height="60" as="geometry" />
        </mxCell>
        <mxCell id="KiCUAQ3bvHqfSKbmyW2W-60" style="edgeStyle=orthogonalEdgeStyle;rounded=0;orthogonalLoop=1;jettySize=auto;html=1;entryX=0.5;entryY=0;entryDx=0;entryDy=0;" edge="1" parent="WIyWlLk6GJQsqaUBKTNV-1" source="KiCUAQ3bvHqfSKbmyW2W-52" target="KiCUAQ3bvHqfSKbmyW2W-11">
          <mxGeometry relative="1" as="geometry" />
        </mxCell>
        <mxCell id="KiCUAQ3bvHqfSKbmyW2W-52" value="resetPoint()&lt;div&gt;// kalibrasi ke poisisi awal&lt;/div&gt;" style="shape=process;whiteSpace=wrap;html=1;backgroundOutline=1;" vertex="1" parent="WIyWlLk6GJQsqaUBKTNV-1">
          <mxGeometry x="190" y="311.22" width="120" height="60" as="geometry" />
        </mxCell>
        <mxCell id="KiCUAQ3bvHqfSKbmyW2W-54" value="setup()" style="ellipse;whiteSpace=wrap;html=1;aspect=fixed;" vertex="1" parent="WIyWlLk6GJQsqaUBKTNV-1">
          <mxGeometry x="60" y="599.94" width="80" height="80" as="geometry" />
        </mxCell>
        <mxCell id="KiCUAQ3bvHqfSKbmyW2W-58" style="edgeStyle=orthogonalEdgeStyle;rounded=0;orthogonalLoop=1;jettySize=auto;html=1;entryX=0.5;entryY=0;entryDx=0;entryDy=0;" edge="1" parent="WIyWlLk6GJQsqaUBKTNV-1" source="KiCUAQ3bvHqfSKbmyW2W-56" target="KiCUAQ3bvHqfSKbmyW2W-57">
          <mxGeometry relative="1" as="geometry" />
        </mxCell>
        <mxCell id="KiCUAQ3bvHqfSKbmyW2W-56" value="setup()" style="ellipse;whiteSpace=wrap;html=1;aspect=fixed;" vertex="1" parent="WIyWlLk6GJQsqaUBKTNV-1">
          <mxGeometry x="210" y="118.66" width="80" height="80" as="geometry" />
        </mxCell>
        <mxCell id="KiCUAQ3bvHqfSKbmyW2W-59" style="edgeStyle=orthogonalEdgeStyle;rounded=0;orthogonalLoop=1;jettySize=auto;html=1;entryX=0.5;entryY=0;entryDx=0;entryDy=0;" edge="1" parent="WIyWlLk6GJQsqaUBKTNV-1" source="KiCUAQ3bvHqfSKbmyW2W-57" target="KiCUAQ3bvHqfSKbmyW2W-52">
          <mxGeometry relative="1" as="geometry" />
        </mxCell>
        <mxCell id="KiCUAQ3bvHqfSKbmyW2W-57" value="&lt;div style=&quot;font-size: 11px;&quot;&gt;- Deklarasi Variabel&lt;/div&gt;&lt;div style=&quot;font-size: 11px;&quot;&gt;- Setup Servo&lt;/div&gt;" style="rounded=0;whiteSpace=wrap;html=1;" vertex="1" parent="WIyWlLk6GJQsqaUBKTNV-1">
          <mxGeometry x="190" y="221.22" width="120" height="60" as="geometry" />
        </mxCell>
        <mxCell id="KiCUAQ3bvHqfSKbmyW2W-64" style="edgeStyle=orthogonalEdgeStyle;rounded=0;orthogonalLoop=1;jettySize=auto;html=1;entryX=1;entryY=0.5;entryDx=0;entryDy=0;" edge="1" parent="WIyWlLk6GJQsqaUBKTNV-1" source="KiCUAQ3bvHqfSKbmyW2W-61" target="KiCUAQ3bvHqfSKbmyW2W-47">
          <mxGeometry relative="1" as="geometry">
            <Array as="points">
              <mxPoint x="770" y="860" />
              <mxPoint x="770" y="760" />
            </Array>
          </mxGeometry>
        </mxCell>
        <mxCell id="KiCUAQ3bvHqfSKbmyW2W-66" style="edgeStyle=orthogonalEdgeStyle;rounded=0;orthogonalLoop=1;jettySize=auto;html=1;" edge="1" parent="WIyWlLk6GJQsqaUBKTNV-1" source="KiCUAQ3bvHqfSKbmyW2W-61">
          <mxGeometry relative="1" as="geometry">
            <mxPoint x="310" y="341" as="targetPoint" />
            <Array as="points">
              <mxPoint x="660" y="920" />
              <mxPoint x="340" y="920" />
              <mxPoint x="340" y="341" />
            </Array>
          </mxGeometry>
        </mxCell>
        <mxCell id="KiCUAQ3bvHqfSKbmyW2W-61" value="Berhasil ?" style="rhombus;whiteSpace=wrap;html=1;" vertex="1" parent="WIyWlLk6GJQsqaUBKTNV-1">
          <mxGeometry x="620" y="820" width="80" height="80" as="geometry" />
        </mxCell>
        <mxCell id="KiCUAQ3bvHqfSKbmyW2W-68" value="Ya" style="text;html=1;align=center;verticalAlign=middle;whiteSpace=wrap;rounded=0;" vertex="1" parent="WIyWlLk6GJQsqaUBKTNV-1">
          <mxGeometry x="414" y="399.30000000000007" width="60" height="30" as="geometry" />
        </mxCell>
        <mxCell id="KiCUAQ3bvHqfSKbmyW2W-69" value="Tidak" style="text;html=1;align=center;verticalAlign=middle;whiteSpace=wrap;rounded=0;" vertex="1" parent="WIyWlLk6GJQsqaUBKTNV-1">
          <mxGeometry x="460" y="329.94" width="60" height="30" as="geometry" />
        </mxCell>
        <mxCell id="KiCUAQ3bvHqfSKbmyW2W-70" value="Ya" style="text;html=1;align=center;verticalAlign=middle;whiteSpace=wrap;rounded=0;" vertex="1" parent="WIyWlLk6GJQsqaUBKTNV-1">
          <mxGeometry x="414" y="599.3000000000001" width="60" height="30" as="geometry" />
        </mxCell>
        <mxCell id="KiCUAQ3bvHqfSKbmyW2W-71" value="Tidak" style="text;html=1;align=center;verticalAlign=middle;whiteSpace=wrap;rounded=0;" vertex="1" parent="WIyWlLk6GJQsqaUBKTNV-1">
          <mxGeometry x="460" y="529.9399999999999" width="60" height="30" as="geometry" />
        </mxCell>
        <mxCell id="KiCUAQ3bvHqfSKbmyW2W-72" value="Ya" style="text;html=1;align=center;verticalAlign=middle;whiteSpace=wrap;rounded=0;" vertex="1" parent="WIyWlLk6GJQsqaUBKTNV-1">
          <mxGeometry x="414" y="799.3000000000001" width="60" height="30" as="geometry" />
        </mxCell>
        <mxCell id="KiCUAQ3bvHqfSKbmyW2W-73" value="Tidak" style="text;html=1;align=center;verticalAlign=middle;whiteSpace=wrap;rounded=0;" vertex="1" parent="WIyWlLk6GJQsqaUBKTNV-1">
          <mxGeometry x="458.72" y="730" width="60" height="30" as="geometry" />
        </mxCell>
        <mxCell id="KiCUAQ3bvHqfSKbmyW2W-74" value="Tidak" style="text;html=1;align=center;verticalAlign=middle;whiteSpace=wrap;rounded=0;" vertex="1" parent="WIyWlLk6GJQsqaUBKTNV-1">
          <mxGeometry x="700" y="230" width="60" height="30" as="geometry" />
        </mxCell>
        <mxCell id="KiCUAQ3bvHqfSKbmyW2W-75" value="Ya" style="text;html=1;align=center;verticalAlign=middle;whiteSpace=wrap;rounded=0;" vertex="1" parent="WIyWlLk6GJQsqaUBKTNV-1">
          <mxGeometry x="650" y="299.94000000000005" width="60" height="30" as="geometry" />
        </mxCell>
        <mxCell id="KiCUAQ3bvHqfSKbmyW2W-76" value="Tidak" style="text;html=1;align=center;verticalAlign=middle;whiteSpace=wrap;rounded=0;" vertex="1" parent="WIyWlLk6GJQsqaUBKTNV-1">
          <mxGeometry x="700" y="429.3" width="60" height="30" as="geometry" />
        </mxCell>
        <mxCell id="KiCUAQ3bvHqfSKbmyW2W-77" value="Ya" style="text;html=1;align=center;verticalAlign=middle;whiteSpace=wrap;rounded=0;" vertex="1" parent="WIyWlLk6GJQsqaUBKTNV-1">
          <mxGeometry x="650" y="499.94000000000005" width="60" height="30" as="geometry" />
        </mxCell>
        <mxCell id="KiCUAQ3bvHqfSKbmyW2W-78" value="Tidak" style="text;html=1;align=center;verticalAlign=middle;whiteSpace=wrap;rounded=0;" vertex="1" parent="WIyWlLk6GJQsqaUBKTNV-1">
          <mxGeometry x="700" y="629.3" width="60" height="30" as="geometry" />
        </mxCell>
        <mxCell id="KiCUAQ3bvHqfSKbmyW2W-79" value="Ya" style="text;html=1;align=center;verticalAlign=middle;whiteSpace=wrap;rounded=0;" vertex="1" parent="WIyWlLk6GJQsqaUBKTNV-1">
          <mxGeometry x="650" y="700" width="60" height="30" as="geometry" />
        </mxCell>
        <mxCell id="KiCUAQ3bvHqfSKbmyW2W-80" value="Tidak" style="text;html=1;align=center;verticalAlign=middle;whiteSpace=wrap;rounded=0;" vertex="1" parent="WIyWlLk6GJQsqaUBKTNV-1">
          <mxGeometry x="700" y="829.3" width="60" height="30" as="geometry" />
        </mxCell>
        <mxCell id="KiCUAQ3bvHqfSKbmyW2W-81" value="Ya" style="text;html=1;align=center;verticalAlign=middle;whiteSpace=wrap;rounded=0;" vertex="1" parent="WIyWlLk6GJQsqaUBKTNV-1">
          <mxGeometry x="600" y="890" width="60" height="30" as="geometry" />
        </mxCell>
      </root>
    </mxGraphModel>
  </diagram>
</mxfile>
